<svg xmlns="http://www.w3.org/2000/svg" width="67.384" height="57" viewBox="0 0 67.384 57">
  <g id="Group_1" data-name="Group 1" transform="translate(-266.046 -129)">
    <g id="Path_1" data-name="Path 1" transform="translate(276 129)" fill="#0bbdff">
      <path d="M 39.70996856689453 22.30857849121094 L -2.11524510383606 22.30857849121094 L -9.263607978820801 0.4999992549419403 L 31.57434463500977 0.4999992549419403 L 39.70996856689453 22.30857849121094 Z" stroke="none"/>
      <path d="M -8.573543548583984 1 L -1.752967834472656 21.80857849121094 L 38.98978042602539 21.80857849121094 L 31.22720527648926 1 L -8.573543548583984 1 M -9.95367431640625 0 L 31.92147636413574 0 L 40.43014526367188 22.80857849121094 L -2.477542877197266 22.80857849121094 L -9.95367431640625 0 Z" stroke="none" fill="#707070"/>
    </g>
    <g id="Path_2" data-name="Path 2" transform="translate(293 163.191)" fill="#f414b7">
      <path d="M 39.70996856689453 22.30857849121094 L -2.11524510383606 22.30857849121094 L -9.263607978820801 0.4999992549419403 L 31.57434463500977 0.4999992549419403 L 39.70996856689453 22.30857849121094 Z" stroke="none"/>
      <path d="M -8.573543548583984 1 L -1.752967834472656 21.80857849121094 L 38.98978042602539 21.80857849121094 L 31.22720527648926 1 L -8.573543548583984 1 M -9.95367431640625 0 L 31.92147636413574 0 L 40.43014526367188 22.80857849121094 L -2.477542877197266 22.80857849121094 L -9.95367431640625 0 Z" stroke="none" fill="#707070"/>
    </g>
  </g>
</svg>
